<?xml version="1.0" encoding="UTF-8" standalone="no"?>
<svg
   xmlns:dc="http://purl.org/dc/elements/1.1/"
   xmlns:cc="http://creativecommons.org/ns#"
   xmlns:rdf="http://www.w3.org/1999/02/22-rdf-syntax-ns#"
   xmlns:svg="http://www.w3.org/2000/svg"
   xmlns="http://www.w3.org/2000/svg"
   xmlns:sodipodi="http://sodipodi.sourceforge.net/DTD/sodipodi-0.dtd"
   xmlns:inkscape="http://www.inkscape.org/namespaces/inkscape"
   viewBox="0 0 512 512"
   version="1.1"
   id="svg4"
   sodipodi:docname="cogs.svg"
   inkscape:version="0.92.4 (5da689c313, 2019-01-14)"
   width="512"
   height="512">
  <metadata
     id="metadata10">
    <rdf:RDF>
      <cc:Work
         rdf:about="">
        <dc:format>image/svg+xml</dc:format>
        <dc:type
           rdf:resource="http://purl.org/dc/dcmitype/StillImage" />
        <dc:title></dc:title>
      </cc:Work>
    </rdf:RDF>
  </metadata>
  <defs
     id="defs8" />
  <sodipodi:namedview
     pagecolor="#ffffff"
     bordercolor="#666666"
     borderopacity="1"
     objecttolerance="10"
     gridtolerance="10"
     guidetolerance="10"
     inkscape:pageopacity="0"
     inkscape:pageshadow="2"
     inkscape:window-width="3440"
     inkscape:window-height="1417"
     id="namedview6"
     showgrid="false"
     inkscape:zoom="0.64651275"
     inkscape:cx="379.5354"
     inkscape:cy="11.9976"
     inkscape:window-x="-8"
     inkscape:window-y="288"
     inkscape:window-maximized="1"
     inkscape:current-layer="svg4" />
  <!-- Font Awesome Free 5.15.1 by @fontawesome - https://fontawesome.com License - https://fontawesome.com/license/free (Icons: CC BY 4.0, Fonts: SIL OFL 1.1, Code: MIT License) -->
  <path
     d="m 403.79381,195.87881 -6.41625,11.18931 c -2.3474,4.14708 -7.3552,5.86851 -11.81528,4.22533 -9.23313,-3.44287 -17.68379,-8.37242 -25.11725,-14.55392 -3.59936,-2.97339 -4.53832,-8.21593 -2.19091,-12.28477 l 6.41624,-11.1893 c -5.39903,-6.25975 -9.62436,-13.53671 -12.44125,-21.43965 h -12.91074 c -4.69481,0 -8.76365,-3.36462 -9.54612,-8.05943 -1.56494,-9.38963 -1.64319,-19.24874 0,-29.0296 0.78247,-4.69481 4.85131,-8.13768 9.54612,-8.13768 h 12.91074 c 2.81689,-7.902933 7.04222,-15.179894 12.44125,-21.439645 L 358.25412,73.97015 c -2.34741,-4.068839 -1.48669,-9.311381 2.19091,-12.284762 7.43346,-6.181505 15.96237,-11.111059 25.11725,-14.553922 4.46008,-1.643185 9.46788,0.07825 11.81528,4.225332 l 6.41625,11.189305 c 8.21592,-1.486691 16.58834,-1.486691 24.80426,0 l 6.41625,-11.189305 c 2.34741,-4.147085 7.35521,-5.868517 11.81528,-4.225332 9.23313,3.442863 17.6838,8.372417 25.11725,14.553922 3.59936,2.973381 4.53832,8.215923 2.19091,12.284762 l -6.41624,11.189305 c 5.39903,6.259751 9.62437,13.536712 12.44125,21.439645 h 12.91074 c 4.69482,0 8.76365,3.36462 9.54612,8.05943 1.56494,9.38963 1.64319,19.24874 0,29.0296 -0.78247,4.69482 -4.8513,8.13768 -9.54612,8.13768 h -12.91074 c -2.81688,7.90294 -7.04222,15.1799 -12.44125,21.43965 l 6.41624,11.1893 c 2.34741,4.06884 1.4867,9.31138 -2.19091,12.28477 -7.43345,6.1815 -15.96236,11.11105 -25.11725,14.55392 -4.46007,1.64318 -9.46787,-0.0782 -11.81528,-4.22533 l -6.41625,-11.18931 c -8.13767,1.48669 -16.58834,1.48669 -24.80426,0 z m -8.21592,-46.00917 c 30.12505,23.16108 64.47543,-11.18931 41.31435,-41.31436 -30.12505,-23.239331 -64.47543,11.1893 -41.31435,41.31436 z m -90.21867,120.42196 26.3692,13.14548 c 7.90294,4.53832 11.3458,14.16269 8.21593,22.76985 -6.96398,18.93574 -20.65718,36.30655 -33.33318,51.48645 -5.79027,6.96397 -15.80587,8.68541 -23.70881,4.14709 l -22.76984,-13.14548 c -12.51951,10.71982 -27.07343,19.24873 -42.95755,24.80426 v 26.29096 c 0,9.07664 -6.49449,16.90133 -15.41464,18.46627 -19.24873,3.28636 -39.43643,3.44286 -59.38939,0 -8.99839,-1.56494 -15.64937,-9.31138 -15.64937,-18.46627 V 373.49925 C 110.83745,367.86548 96.283525,359.41481 83.764023,348.69499 l -22.769846,13.06723 c -7.824689,4.53832 -17.918538,2.81689 -23.708808,-4.14709 C 24.609373,342.43524 11.229154,325.06443 4.2651806,306.20693 1.1353049,297.67802 4.5781681,288.05365 12.481104,283.43708 L 38.537319,270.2916 c -3.051629,-16.3536 -3.051629,-33.17668 0,-49.60853 L 12.481104,207.45935 C 4.5781681,202.92103 1.057058,193.29666 4.2651806,184.76775 11.229154,165.832 24.609373,148.46119 37.285369,133.28129 c 5.79027,-6.96397 15.805872,-8.6854 23.708808,-4.14708 l 22.769846,13.14548 C 96.283525,131.55986 110.83745,123.03095 126.72157,117.47542 V 91.106219 c 0,-8.998393 6.41624,-16.823082 15.33639,-18.38802 19.24873,-3.286369 39.51468,-3.442863 59.46763,-0.07825 8.9984,1.564938 15.64938,9.31138 15.64938,18.466267 v 26.290954 c 15.88412,5.63378 30.43804,14.08444 42.95755,24.80427 l 22.76984,-13.14548 c 7.82469,-4.53832 17.91854,-2.81689 23.70881,4.14708 12.676,15.17991 25.97797,32.55072 32.94194,51.48646 3.12988,8.52892 0.0783,18.15328 -7.82469,22.76985 l -26.3692,13.14548 c 3.05163,16.43184 3.05163,33.25493 0,49.68677 z m -92.01835,16.5101 c 46.32216,-60.25011 -22.45685,-129.02913 -82.70696,-82.70697 -46.322159,60.25011 22.45686,129.02913 82.70696,82.70697 z m 190.45294,142.95707 -6.41625,11.1893 c -2.3474,4.14709 -7.3552,5.86852 -11.81528,4.22534 -9.23313,-3.44287 -17.68379,-8.37242 -25.11725,-14.55393 -3.59936,-2.97338 -4.53832,-8.21592 -2.19091,-12.28476 l 6.41624,-11.1893 c -5.39903,-6.25975 -9.62436,-13.53672 -12.44125,-21.43965 h -12.91074 c -4.69481,0 -8.76365,-3.36462 -9.54612,-8.05943 -1.56494,-9.38963 -1.64319,-19.24874 0,-29.0296 0.78247,-4.69481 4.85131,-8.13767 9.54612,-8.13767 h 12.91074 c 2.81689,-7.90294 7.04222,-15.1799 12.44125,-21.43965 l -6.41624,-11.18931 c -2.34741,-4.06884 -1.48669,-9.31138 2.19091,-12.28476 7.43346,-6.18151 15.96237,-11.11106 25.11725,-14.55392 4.46008,-1.64319 9.46788,0.0782 11.81528,4.22533 l 6.41625,11.18931 c 8.21592,-1.4867 16.58834,-1.4867 24.80426,0 l 6.41625,-11.18931 c 2.34741,-4.14709 7.35521,-5.86852 11.81528,-4.22533 9.23313,3.44286 17.6838,8.37241 25.11725,14.55392 3.59936,2.97338 4.53832,8.21592 2.19091,12.28476 l -6.41624,11.18931 c 5.39903,6.25975 9.62437,13.53671 12.44125,21.43965 h 12.91074 c 4.69482,0 8.76365,3.36461 9.54612,8.05942 1.56494,9.38963 1.64319,19.24874 0,29.0296 -0.78247,4.69482 -4.8513,8.13768 -9.54612,8.13768 h -12.91074 c -2.81688,7.90293 -7.04222,15.1799 -12.44125,21.43965 l 6.41624,11.1893 c 2.34741,4.06884 1.4867,9.31138 -2.19091,12.28476 -7.43345,6.18151 -15.96236,11.11106 -25.11725,14.55393 -4.46007,1.64318 -9.46787,-0.0782 -11.81528,-4.22534 l -6.41625,-11.1893 c -8.13767,1.48669 -16.58834,1.48669 -24.80426,0 z m -8.21592,-46.08742 c 30.12505,23.16108 64.47543,-11.18931 41.31435,-41.31436 -30.12505,-23.16108 -64.47543,11.18931 -41.31435,41.31436 z"
     id="path2"
     style="fill:#710132;fill-opacity:1;stroke-width:0.78246891"
     inkscape:connector-curvature="0" />
</svg>
