<?xml version="1.0" encoding="UTF-8" standalone="no"?>
<!-- Created with Inkscape (http://www.inkscape.org/) -->

<svg
   xmlns:dc="http://purl.org/dc/elements/1.1/"
   xmlns:cc="http://creativecommons.org/ns#"
   xmlns:rdf="http://www.w3.org/1999/02/22-rdf-syntax-ns#"
   xmlns:svg="http://www.w3.org/2000/svg"
   xmlns="http://www.w3.org/2000/svg"
   xmlns:sodipodi="http://sodipodi.sourceforge.net/DTD/sodipodi-0.dtd"
   xmlns:inkscape="http://www.inkscape.org/namespaces/inkscape"
   width="512"
   height="512"
   viewBox="0 0 135.46666 135.46667"
   version="1.1"
   id="svg8"
   inkscape:version="0.92.4 (5da689c313, 2019-01-14)"
   sodipodi:docname="dubuilder-appicon_large.svg">
  <defs
     id="defs2" />
  <sodipodi:namedview
     id="base"
     pagecolor="#ffffff"
     bordercolor="#666666"
     borderopacity="1.0"
     inkscape:pageopacity="0.0"
     inkscape:pageshadow="2"
     inkscape:zoom="0.78306552"
     inkscape:cx="202.19855"
     inkscape:cy="257.86087"
     inkscape:document-units="mm"
     inkscape:current-layer="layer1"
     showgrid="false"
     units="px"
     inkscape:window-width="1591"
     inkscape:window-height="1158"
     inkscape:window-x="1582"
     inkscape:window-y="430"
     inkscape:window-maximized="0" />
  <metadata
     id="metadata5">
    <rdf:RDF>
      <cc:Work
         rdf:about="">
        <dc:format>image/svg+xml</dc:format>
        <dc:type
           rdf:resource="http://purl.org/dc/dcmitype/StillImage" />
        <dc:title></dc:title>
      </cc:Work>
    </rdf:RDF>
  </metadata>
  <g
     inkscape:label="Calque 1"
     inkscape:groupmode="layer"
     id="layer1"
     transform="translate(0,-161.53331)">
    <circle
       style="opacity:1;fill:#e3e4e3;fill-opacity:1;fill-rule:nonzero;stroke:#710132;stroke-width:5.51900005;stroke-linecap:butt;stroke-linejoin:round;stroke-miterlimit:4;stroke-dasharray:none;stroke-opacity:1;paint-order:markers fill stroke"
       id="circle834"
       cx="67.73333"
       cy="229.26665"
       r="64.927773" />
    <g
       transform="matrix(1.2106313,0,0,1.2106313,-24.032091,-49.05615)"
       id="layer1-1"
       inkscape:label="Calque 1">
      <path
         inkscape:connector-curvature="0"
         id="path5737"
         transform="matrix(0.26458333,0,0,0.26458333,41.884402,191.09139)"
         d="m 35.025391,21.292969 c -7.345078,0 -13.298836,5.955723 -13.298829,13.300781 v 221.97852 c -7e-6,7.34505 5.953751,13.29882 13.298829,13.29882 H 221.46094 c 7.36486,3.1e-4 13.35378,-5.93423 13.41992,-13.29882 V 110.03711 h -75.56641 c -7.34507,0 -13.29883,-5.95377 -13.29883,-13.298829 V 21.292969 Z m 128.763669,5.441406 v 65.529297 h 65.5293 c -1.14096,-1.795956 -2.47963,-3.4586 -3.99024,-4.957031 L 168.74609,30.724609 c -1.49842,-1.510601 -3.16108,-2.84927 -4.95703,-3.990234 z M 38.449219,30.242188 h 91.888671 c 3.58382,0 6.46875,2.884929 6.46875,6.46875 v 0.597656 c 0,3.583821 -2.88493,6.46875 -6.46875,6.46875 H 38.449219 c -3.583821,0 -6.46875,-2.884929 -6.46875,-6.46875 v -0.597656 c 0,-3.583821 2.884929,-6.46875 6.46875,-6.46875 z m 0,31.785156 h 91.888671 c 3.58382,0 6.46875,2.884929 6.46875,6.46875 v 0.595703 c 0,3.583821 -2.88493,6.46875 -6.46875,6.46875 H 38.449219 c -3.583821,0 -6.46875,-2.884929 -6.46875,-6.46875 v -0.595703 c 0,-3.583821 2.884929,-6.46875 6.46875,-6.46875 z m 0,31.783203 h 91.888671 c 3.58382,0 6.46875,2.886882 6.46875,6.470703 v 0.5957 c 0,3.58382 -2.88493,6.46875 -6.46875,6.46875 H 38.449219 c -3.583821,0 -6.46875,-2.88493 -6.46875,-6.46875 v -0.5957 c 0,-3.583821 2.884929,-6.470703 6.46875,-6.470703 z M 167.4668,119.14453 c 0.99369,-0.004 1.94446,0.50689 2.45898,1.41602 l 1.875,3.26953 c 2.40115,-0.43446 4.84885,-0.43446 7.25,0 l 1.875,-3.26953 c 0.68604,-1.21203 2.14963,-1.7166 3.45313,-1.23633 2.69842,1.00618 5.16738,2.44738 7.33984,4.2539 1.05194,0.86903 1.32665,2.40073 0.64063,3.58985 l -1.875,3.27148 c 1.57789,1.82945 2.81345,3.95596 3.63671,6.26563 h 3.77344 c 1.3721,0 2.56037,0.98338 2.78906,2.35547 0.45738,2.74416 0.48022,5.62588 0,8.48437 -0.22858,1.37208 -1.41696,2.37696 -2.78906,2.37696 h -3.77344 c -0.82326,2.30973 -2.05882,4.43806 -3.63671,6.26757 l 1.875,3.26953 c 0.68602,1.18916 0.43418,2.72086 -0.64063,3.58985 -2.17246,1.80657 -4.66427,3.24768 -7.33984,4.2539 -1.3035,0.48023 -2.76709,-0.0222 -3.45313,-1.23437 l -1.875,-3.27148 c -2.37827,0.43444 -4.84885,0.43444 -7.25,0 l -1.875,3.27148 c -0.68603,1.21207 -2.14964,1.7146 -3.45312,1.23437 -2.69845,-1.00622 -5.16737,-2.44733 -7.33985,-4.2539 -1.05193,-0.86899 -1.32666,-2.40069 -0.64062,-3.58985 l 1.875,-3.26953 c -1.5779,-1.82951 -2.81151,-3.95784 -3.63477,-6.26757 h -3.77344 c -1.37209,-10e-6 -2.56233,-0.98343 -2.79101,-2.35547 -0.45736,-2.74424 -0.48023,-5.62389 0,-8.48243 0.22866,-1.37208 1.41892,-2.3789 2.79101,-2.3789 h 3.77344 c 0.82326,-2.30967 2.05687,-4.43618 3.63477,-6.26563 l -1.875,-3.27148 c -0.68604,-1.18912 -0.43417,-2.72082 0.64062,-3.58985 2.17248,-1.80652 4.66427,-3.24772 7.33985,-4.2539 0.32587,-0.12009 0.66291,-0.17869 0.99414,-0.17969 z m -63.54688,6.91797 c 2.91283,-0.009 5.85189,0.22698 8.76758,0.71875 2.62983,0.45732 4.57422,2.72088 4.57422,5.39648 v 7.6836 c 4.64223,1.64655 8.89579,4.11512 12.55469,7.24805 l 6.65429,-3.8418 c 2.28681,-1.32643 5.2355,-0.82239 6.92774,1.21289 3.70463,4.43641 7.59364,9.51281 9.6289,15.04687 0.91472,2.4926 0.0228,5.30508 -2.28711,6.6543 l -7.70703,3.8418 c 0.89186,4.8023 0.89186,9.71918 0,14.52148 l 7.70703,3.8418 c 2.30969,1.32635 3.31512,4.13876 2.40039,6.6543 -2.03525,5.53402 -6.03755,10.6105 -9.74218,15.04687 -1.69224,2.03535 -4.61805,2.53928 -6.92774,1.21289 l -6.65429,-3.8418 c -3.6589,3.13297 -7.91246,5.62636 -12.55469,7.25 v 7.6836 c 0,2.65266 -1.89889,4.93912 -4.50586,5.39648 -5.62556,0.96046 -11.52605,1.00623 -17.357422,0 -2.629834,-0.45736 -4.572266,-2.72095 -4.572266,-5.39648 v -7.6836 c -4.642231,-1.64651 -8.895787,-4.11703 -12.554688,-7.25 l -6.654296,3.81836 c -2.286811,1.32635 -5.237446,0.8243 -6.929688,-1.21093 -3.70464,-4.43641 -7.615126,-9.51424 -9.650391,-15.02539 -0.914728,-2.49264 0.09074,-5.30509 2.400391,-6.6543 l 7.615234,-3.8418 c -0.891862,-4.77944 -0.891862,-9.69575 0,-14.49804 L 57.4375,166.18164 c -2.309681,-1.32639 -3.337989,-4.1383 -2.400391,-6.63086 2.035265,-5.53417 5.945751,-10.6105 9.650391,-15.04687 1.692242,-2.03528 4.620007,-2.53917 6.929688,-1.21289 l 6.654296,3.84179 c 3.658901,-3.13296 7.912457,-5.62631 12.554688,-7.25 v -7.70508 c 0,-2.62979 1.875459,-4.91767 4.482422,-5.375 2.812779,-0.48022 5.698496,-0.73123 8.611326,-0.74023 z m 71.78906,8.98633 c -6.62586,-0.22263 -11.59684,7.42444 -6.30859,14.30273 8.80422,6.76899 18.84317,-3.27003 12.07422,-12.07422 -1.92593,-1.48571 -3.91038,-2.16621 -5.76563,-2.22851 z m -72.20507,25.71679 c -3.712201,0.12028 -7.683309,1.47219 -11.53516,4.4336 -13.537928,17.60848 6.563424,37.70984 24.17187,24.17187 10.57651,-13.75662 0.62112,-29.03499 -12.63671,-28.60547 z m 63.96289,26.73243 c 0.99369,-0.004 1.94446,0.5049 2.45898,1.41406 l 1.875,3.27148 c 2.40115,-0.43453 4.84885,-0.43453 7.25,0 l 1.875,-3.27148 c 0.68604,-1.21198 2.14963,-1.7146 3.45313,-1.23438 2.69842,1.00619 5.16738,2.44737 7.33984,4.25391 1.05194,0.86903 1.32665,2.40065 0.64063,3.58984 l -1.875,3.26954 c 1.57789,1.82944 2.81345,3.95783 3.63671,6.26757 h 3.77344 c 1.3721,0 2.56037,0.98339 2.78906,2.35547 0.45738,2.7442 0.48022,5.62393 0,8.48242 -0.22858,1.37212 -1.41696,2.37891 -2.78906,2.37891 h -3.77344 c -0.82326,2.30967 -2.05882,4.43615 -3.63671,6.26563 l 1.875,3.26953 c 0.68602,1.18923 0.43418,2.7228 -0.64063,3.59179 -2.17246,1.80658 -4.66427,3.24772 -7.33984,4.25391 -1.3035,0.48023 -2.76709,-0.0241 -3.45313,-1.23633 l -1.875,-3.26953 c -2.37827,0.43453 -4.84885,0.43453 -7.25,0 l -1.875,3.26953 c -0.68603,1.21203 -2.14964,1.71656 -3.45312,1.23633 -2.69845,-1.00619 -5.16737,-2.44733 -7.33985,-4.25391 -1.05193,-0.86899 -1.32666,-2.40256 -0.64062,-3.59179 l 1.875,-3.26953 c -1.5779,-1.82948 -2.81151,-3.95596 -3.63477,-6.26563 h -3.77344 c -1.37209,0 -2.56233,-0.98335 -2.79101,-2.35547 -0.45736,-2.74416 -0.48023,-5.62584 0,-8.48437 0.22866,-1.37209 1.41892,-2.37696 2.79101,-2.37696 h 3.77344 c 0.82326,-2.30974 2.05687,-4.43813 3.63477,-6.26757 l -1.875,-3.26954 c -0.68604,-1.18919 -0.43417,-2.72081 0.64062,-3.58984 2.17248,-1.80654 4.66427,-3.24772 7.33985,-4.25391 0.32587,-0.12008 0.66291,-0.17868 0.99414,-0.17968 z m 8.24218,15.89062 c -6.62586,-0.21781 -11.59684,7.41464 -6.30859,14.29297 8.80422,6.76895 18.84317,-3.26996 12.07422,-12.07422 -1.92593,-1.4807 -3.91038,-2.15775 -5.76563,-2.21875 z M 38.746094,246.10547 H 217.73828 c 3.74908,0 6.76758,3.01655 6.76758,6.76562 0,3.74908 -3.0185,6.76758 -6.76758,6.76758 H 38.746094 c -3.749079,0 -6.765625,-3.0185 -6.765625,-6.76758 0,-3.74907 3.016546,-6.76562 6.765625,-6.76562 z"
         style="fill:#710132;stroke-width:12.0903883" />
    </g>
  </g>
</svg>
