<?xml version="1.0" encoding="UTF-8" standalone="no"?>
<svg
   xmlns:dc="http://purl.org/dc/elements/1.1/"
   xmlns:cc="http://creativecommons.org/ns#"
   xmlns:rdf="http://www.w3.org/1999/02/22-rdf-syntax-ns#"
   xmlns:svg="http://www.w3.org/2000/svg"
   xmlns="http://www.w3.org/2000/svg"
   xmlns:sodipodi="http://sodipodi.sourceforge.net/DTD/sodipodi-0.dtd"
   xmlns:inkscape="http://www.inkscape.org/namespaces/inkscape"
   id="Calque_1"
   data-name="Calque 1"
   viewBox="0 0 32 32"
   version="1.1"
   sodipodi:docname="file-settings.svg"
   inkscape:version="0.92.4 (5da689c313, 2019-01-14)">
  <metadata
     id="metadata13">
    <rdf:RDF>
      <cc:Work
         rdf:about="">
        <dc:format>image/svg+xml</dc:format>
        <dc:type
           rdf:resource="http://purl.org/dc/dcmitype/StillImage" />
        <dc:title>icones</dc:title>
      </cc:Work>
    </rdf:RDF>
  </metadata>
  <defs
     id="defs11" />
  <sodipodi:namedview
     pagecolor="#ffffff"
     bordercolor="#666666"
     borderopacity="1"
     objecttolerance="10"
     gridtolerance="10"
     guidetolerance="10"
     inkscape:pageopacity="0"
     inkscape:pageshadow="2"
     inkscape:window-width="3440"
     inkscape:window-height="1417"
     id="namedview9"
     showgrid="false"
     inkscape:zoom="12.823808"
     inkscape:cx="12.605657"
     inkscape:cy="13.904051"
     inkscape:window-x="-8"
     inkscape:window-y="288"
     inkscape:window-maximized="1"
     inkscape:current-layer="Calque_1" />
  <title
     id="title2">icones</title>
  <path
     style="display:inline;fill:#710132"
     mask="none"
     d="M 2.8398438 1.4316406 A 1.1 1.1 0 0 0 1.7382812 2.5332031 L 1.7382812 20.892578 A 1.1 1.1 0 0 0 2.8398438 21.992188 L 14.271484 21.992188 C 14.273633 21.93618 14.26819 21.880341 14.271484 21.824219 L 13.390625 21.316406 C 13.390625 21.316406 13.390625 21.314453 13.390625 21.314453 C 12.68719 20.911623 12.341829 20.046309 12.585938 19.267578 C 12.585938 19.267578 12.585938 19.265625 12.585938 19.265625 C 12.769363 18.676959 13.017601 18.119188 13.298828 17.582031 L 6.5097656 17.582031 A 0.36 0.36 0 0 1 6.1484375 17.212891 L 6.1484375 16.482422 A 0.36 0.36 0 0 1 6.5097656 16.113281 L 14.226562 16.113281 C 14.418039 15.86283 14.614937 15.615904 14.828125 15.384766 C 14.828125 15.384766 14.830078 15.382812 14.830078 15.382812 C 15.375133 14.782381 16.299376 14.639818 16.998047 15.039062 A 1.3246449 1.3246449 0 0 1 17.005859 15.042969 L 17.888672 15.554688 C 18.156937 15.378194 18.431826 15.218457 18.71875 15.074219 L 18.71875 14.050781 C 18.71875 13.517574 18.977735 13.044606 19.369141 12.71875 L 19.369141 8.7714844 L 13.119141 8.7714844 A 1.1 1.1 0 0 1 12.019531 7.671875 L 12.019531 1.4316406 L 2.8398438 1.4316406 z M 13.488281 1.8828125 L 13.488281 7.3027344 L 18.910156 7.3027344 A 2.36 2.36 0 0 0 18.580078 6.8925781 L 13.898438 2.2128906 A 2.36 2.36 0 0 0 13.488281 1.8828125 z M 6.484375 10.242188 A 0.36 0.36 0 0 1 6.5097656 10.242188 L 14.589844 10.242188 A 0.36 0.36 0 0 1 14.958984 10.601562 L 14.958984 11.341797 A 0.36 0.36 0 0 1 14.589844 11.712891 L 6.5097656 11.712891 A 0.36 0.36 0 0 1 6.1484375 11.341797 L 6.1484375 10.601562 A 0.36 0.36 0 0 1 6.484375 10.242188 z M 6.5097656 13.181641 L 14.589844 13.181641 A 0.36 0.36 0 0 1 14.958984 13.542969 L 14.958984 14.283203 A 0.36 0.36 0 0 1 14.589844 14.642578 L 6.5097656 14.642578 A 0.36 0.36 0 0 1 6.1484375 14.283203 L 6.1484375 13.542969 A 0.36 0.36 0 0 1 6.5097656 13.181641 z "
     id="path4" />
  <path
     style="display:inline;opacity:1;vector-effect:none;fill:#710132;fill-opacity:1;stroke-width:0.03584352;stroke-linecap:butt;stroke-linejoin:miter;stroke-miterlimit:4;stroke-dasharray:none;stroke-dashoffset:0;stroke-opacity:1"
     d="m 20.380859,13.630859 c -0.197139,0.04301 -0.33789,0.219196 -0.33789,0.419922 v 1.763672 c -0.795728,0.283161 -1.532552,0.709407 -2.177735,1.257813 l -1.523437,-0.882813 c -0.175633,-0.100363 -0.395047,-0.06656 -0.53125,0.08398 -0.885335,0.957022 -1.563077,2.111014 -1.960938,3.390624 -0.06093,0.193557 0.02164,0.401591 0.197266,0.501954 l 1.527344,0.880859 c -0.154127,0.831571 -0.154127,1.684054 0,2.515625 l -1.527344,0.882812 c -0.175632,0.100364 -0.254617,0.308397 -0.197266,0.501954 0.397861,1.276028 1.075603,2.43002 1.960938,3.390625 0.136203,0.146959 0.359203,0.182394 0.53125,0.08203 l 1.525391,-0.88086 c 0.641597,0.551989 1.380377,0.978235 2.179687,1.257813 v 1.763672 c 0,0.200721 0.140751,0.374956 0.337891,0.417969 1.315458,0.293917 2.663122,0.279579 3.914062,0 0.197138,-0.04301 0.335938,-0.217248 0.335938,-0.417969 v -1.763672 c 0.795728,-0.283165 1.534503,-0.709407 2.179687,-1.257813 l 1.527344,0.88086 c 0.175634,0.100363 0.39309,0.06852 0.529297,-0.08203 0.885336,-0.957023 1.563074,-2.111011 1.960937,-3.390625 0.05376,-0.19714 -0.02553,-0.405497 -0.201172,-0.50586 l -1.52539,-0.880859 c 0.15413,-0.831567 0.15413,-1.686012 0,-2.517578 l 1.52539,-0.88086 c 0.175634,-0.100363 0.254617,-0.308398 0.197266,-0.501953 -0.397862,-1.276027 -1.073648,-2.43002 -1.958984,-3.390625 -0.136203,-0.146958 -0.359202,-0.182393 -0.53125,-0.08203 l -1.527344,0.880859 C 26.16895,16.51637 25.430169,16.090126 24.630859,15.810547 v -1.759766 c 0,-0.200726 -0.138797,-0.376909 -0.335937,-0.419922 -1.315454,-0.293916 -2.663123,-0.279578 -3.914063,0 z m 1.957032,5.802735 c 1.580698,0 2.867187,1.286487 2.867187,2.867187 0,1.580699 -1.286489,2.869141 -2.867187,2.869141 -1.5807,0 -2.867188,-1.288442 -2.867188,-2.869141 0,-1.5807 1.286488,-2.867187 2.867188,-2.867187 z"
     id="path5744"
     inkscape:connector-curvature="0" />
</svg>
